<?xml version="1.0" standalone="no"?>
<!DOCTYPE svg PUBLIC "-//W3C//DTD SVG 20010904//EN"
 "http://www.w3.org/TR/2001/REC-SVG-20010904/DTD/svg10.dtd">
<svg version="1.0" xmlns="http://www.w3.org/2000/svg"
 width="500.000000pt" height="250.000000pt" viewBox="0 0 500.000000 250.000000"
 preserveAspectRatio="xMidYMid meet">

<g transform="translate(0.000000,250.000000) scale(0.100000,-0.100000)"
fill="#000000" stroke="none">
<path d="M1468 2371 c-41 -31 -104 -84 -138 -118 -35 -35 -68 -63 -74 -63 -7
0 -11 17 -11 38 0 21 -8 51 -18 65 -15 23 -25 27 -62 27 -59 0 -78 -27 -73
-105 2 -44 0 -55 -12 -55 -8 0 -21 9 -28 20 -10 16 -16 18 -32 10 -16 -8 -30
-4 -73 20 -57 32 -159 70 -187 70 -21 0 -32 -34 -17 -49 6 -6 26 -11 44 -11
19 0 46 -6 61 -14 96 -51 206 -168 218 -234 12 -64 -3 -512 -21 -612 -17 -94
-16 -180 3 -330 6 -47 10 -55 29 -58 34 -5 42 28 49 196 4 101 14 182 31 257
25 111 29 123 38 113 9 -9 43 -199 50 -282 4 -44 14 -100 22 -125 8 -25 20
-71 27 -101 12 -56 38 -78 57 -48 15 23 10 162 -11 304 -29 197 -40 342 -29
372 7 18 5 46 -6 93 -9 43 -15 117 -15 200 0 132 0 132 32 183 71 113 168 206
214 206 11 0 30 12 43 25 l23 25 -22 0 c-15 0 -20 5 -17 14 13 33 -24 20 -95
-33z"/>
<path d="M1942 2374 c-37 -26 -50 -63 -48 -136 2 -54 7 -72 24 -91 12 -13 22
-26 22 -30 0 -4 -21 -18 -47 -31 -59 -29 -139 -99 -158 -137 -31 -58 -11 -123
77 -252 22 -32 43 -70 48 -85 13 -38 44 -393 42 -474 -1 -38 -2 -86 -2 -108
-1 -22 -1 -59 -1 -82 1 -24 0 -54 -1 -68 -3 -21 2 -26 24 -28 22 -3 32 4 55
39 l28 43 -3 283 c-2 184 1 283 8 283 5 0 17 -12 26 -26 14 -20 20 -70 29
-232 8 -144 16 -214 26 -229 12 -21 12 -24 -9 -39 -73 -51 -68 -190 9 -229 40
-21 82 -12 114 27 30 36 34 106 8 183 -19 61 -27 174 -24 357 2 129 1 139 -24
187 -45 90 -44 121 13 241 65 135 69 157 42 210 -29 56 -86 118 -132 141 l-39
20 31 38 c34 44 40 107 16 166 -26 62 -106 93 -154 59z m-82 -523 c13 -49 13
-111 -1 -111 -18 0 -78 69 -85 97 -6 21 -1 31 20 50 34 29 50 19 66 -36z"/>
<path d="M4056 2257 c-39 -39 -126 -136 -193 -214 -67 -78 -134 -150 -149
-160 -60 -39 -176 4 -284 103 -45 43 -63 52 -100 56 -25 3 -53 8 -62 12 -14 6
-18 3 -18 -14 0 -23 114 -137 209 -208 54 -41 101 -91 145 -156 21 -31 26 -50
26 -95 0 -31 -7 -64 -14 -73 -9 -13 -11 -32 -5 -68 8 -53 7 -57 -60 -240 -17
-45 -20 -80 -21 -197 0 -157 6 -173 62 -173 l31 0 -25 20 c-22 17 -26 30 -32
104 -9 113 -2 147 35 168 16 9 29 24 29 33 0 35 18 2 24 -45 9 -68 41 -105 83
-96 48 11 67 40 73 110 l5 61 17 -51 c25 -76 53 -255 45 -287 -5 -16 -14 -27
-25 -27 -34 -1 20 -30 55 -30 39 0 39 -6 13 145 -11 64 -20 150 -20 191 0 41
-6 103 -14 137 -8 34 -23 114 -32 177 -42 285 -25 392 89 532 23 29 53 69 66
88 36 52 102 120 135 137 16 8 39 12 52 9 14 -4 24 -2 24 4 0 31 -62 120 -83
120 -6 0 -42 -33 -81 -73z"/>
<path d="M2737 2289 c-9 -5 -24 -23 -32 -39 -18 -35 -20 -133 -3 -159 9 -15 8
-44 -5 -133 -9 -62 -24 -163 -32 -225 -20 -141 -40 -220 -65 -255 -24 -32 -25
-65 -5 -92 13 -17 15 -18 15 -3 0 9 6 17 14 17 17 0 17 1 46 135 22 101 35
131 44 104 6 -17 25 -150 33 -231 3 -32 12 -63 19 -69 21 -18 17 -79 -12 -171
-27 -83 -70 -239 -81 -290 -6 -33 -3 -35 96 -42 70 -5 101 2 101 24 0 5 -16
18 -36 29 -27 16 -35 27 -31 41 4 16 0 20 -19 20 -13 0 -24 2 -24 4 0 7 92
270 96 275 2 2 20 -9 40 -25 63 -51 88 -64 104 -54 12 8 11 16 -8 54 -12 25
-19 52 -16 61 4 8 1 22 -6 30 -10 12 4 32 84 116 87 92 96 106 96 140 0 49
-15 57 -128 70 -121 13 -122 14 -122 58 0 45 -42 195 -77 272 l-25 57 26 39
c14 21 30 61 35 88 5 28 13 58 17 68 8 21 -25 61 -68 83 -32 16 -47 17 -71 3z"/>
<path d="M4616 2191 c-4 -7 -5 -23 -2 -37 7 -27 -11 -33 -33 -11 -18 18 -4
-39 21 -80 15 -26 16 -35 7 -57 -14 -30 -22 -32 -39 -11 -17 21 -30 3 -30 -42
0 -30 -1 -31 -52 -36 -58 -5 -263 -33 -315 -42 -19 -3 -33 -12 -33 -20 0 -7
-4 -15 -9 -17 -5 -1 -3 -11 4 -22 13 -18 15 -18 50 4 34 21 43 22 145 15 61
-4 110 -11 110 -15 0 -5 -7 -39 -16 -77 -9 -40 -17 -127 -19 -213 -4 -207 -33
-284 -163 -432 -25 -29 -53 -62 -63 -73 -9 -11 -20 -44 -24 -73 l-7 -52 51 27
c58 30 70 43 196 209 109 144 147 184 173 184 12 0 69 -15 129 -33 87 -26 122
-43 181 -86 40 -29 76 -51 79 -48 9 10 -7 113 -20 129 -7 8 -33 22 -58 32
-114 41 -193 126 -225 239 -14 48 -15 64 -4 102 7 25 18 45 24 45 24 0 171
-105 234 -167 64 -63 92 -73 92 -34 0 18 -94 116 -170 177 -19 15 -53 44 -76
64 -22 19 -52 45 -67 57 -15 13 -27 28 -27 33 0 19 30 23 49 6 26 -24 65 -4
83 43 14 35 14 41 -10 87 -13 27 -41 67 -62 89 -29 30 -41 53 -48 90 -6 28
-10 42 -11 33 -1 -25 -16 -22 -28 4 -7 16 -12 18 -17 9z"/>
<path d="M523 2023 c33 -4 37 -7 37 -31 0 -21 -16 -41 -70 -87 -91 -79 -100
-80 -100 -16 0 63 -17 81 -76 81 -67 0 -88 -26 -103 -126 -12 -84 -13 -87
-105 -188 -67 -75 -67 -82 -11 -166 29 -43 36 -66 46 -143 24 -187 23 -196
-66 -376 l-79 -161 38 -39 c40 -41 82 -62 72 -36 -3 8 8 44 25 82 16 37 45
109 63 158 39 100 44 87 20 -46 -9 -48 -14 -95 -11 -104 5 -11 22 -15 67 -15
56 0 78 11 46 23 -12 5 -13 31 -9 144 5 110 2 151 -11 203 -18 67 -23 153 -12
188 4 13 17 22 34 24 l27 3 7 145 c4 94 11 157 21 180 9 20 43 57 80 88 89 72
189 180 185 200 -3 14 -17 17 -78 18 -41 1 -58 -1 -37 -3z"/>
<path d="M1950 515 c0 -96 3 -115 15 -115 10 0 15 10 15 34 0 22 9 45 23 62
34 39 49 24 46 -45 -2 -42 0 -56 11 -56 20 0 33 71 20 111 -14 40 -42 51 -75
30 l-25 -16 0 55 c0 42 -3 55 -15 55 -12 0 -15 -19 -15 -115z"/>
<path d="M437 613 c-4 -3 -7 -21 -7 -39 0 -29 -3 -33 -32 -36 -45 -4 -74 -46
-62 -90 11 -39 47 -60 79 -48 14 5 27 4 33 -2 17 -17 34 0 22 22 -5 10 -10 59
-10 109 0 83 -5 102 -23 84z m-11 -118 c4 -8 3 -26 0 -40 -8 -31 -51 -35 -59
-6 -10 40 45 83 59 46z"/>
<path d="M1170 600 c0 -11 7 -20 15 -20 8 0 15 9 15 20 0 11 -7 20 -15 20 -8
0 -15 -9 -15 -20z"/>
<path d="M2457 614 c-9 -10 4 -34 19 -34 8 0 14 9 14 20 0 19 -19 27 -33 14z"/>
<path d="M4520 600 c0 -15 5 -20 18 -18 9 2 17 10 17 18 0 8 -8 16 -17 18 -13
2 -18 -3 -18 -18z"/>
<path d="M193 589 c-34 -10 -42 -26 -21 -47 10 -10 10 -17 -1 -33 -9 -15 -10
-24 -2 -32 6 -6 11 -25 11 -43 0 -44 40 -57 95 -32 32 15 35 43 3 33 -65 -20
-68 -19 -68 12 0 26 5 31 41 42 23 7 39 17 36 24 -4 12 -14 13 -52 6 -14 -3
-21 2 -23 17 -3 22 19 34 66 34 13 0 22 6 22 15 0 17 -54 19 -107 4z"/>
<path d="M1057 593 c-4 -3 -7 -21 -7 -40 0 -21 -6 -36 -15 -39 -8 -4 -15 -12
-15 -20 0 -8 7 -14 15 -14 11 0 15 -12 15 -50 0 -38 4 -50 15 -50 12 0 15 13
15 59 0 51 3 61 20 66 11 3 20 11 20 17 0 5 -9 12 -20 15 -14 4 -20 14 -20 34
0 28 -9 37 -23 22z"/>
<path d="M1783 593 c-7 -2 -13 -22 -13 -43 0 -21 -5 -42 -10 -45 -7 -5 -8 -11
-1 -19 5 -6 11 -31 13 -55 4 -62 28 -67 28 -7 0 41 3 48 28 57 60 23 90 77 60
107 -12 12 -81 15 -105 5z m87 -33 c0 -13 -37 -50 -50 -50 -14 0 -24 26 -16
45 6 17 66 21 66 5z"/>
<path d="M3427 593 c-4 -3 -7 -21 -7 -40 0 -21 -6 -36 -15 -39 -8 -4 -15 -12
-15 -20 0 -8 7 -14 15 -14 11 0 15 -12 15 -50 0 -38 4 -50 15 -50 12 0 15 13
15 59 0 51 3 61 20 66 11 3 20 13 20 21 0 8 -9 14 -20 14 -16 0 -20 7 -20 30
0 29 -9 38 -23 23z"/>
<path d="M3736 587 c-12 -9 -17 -23 -14 -42 3 -28 13 -38 84 -82 18 -10 18
-12 2 -29 -16 -17 -19 -17 -58 1 -50 22 -64 11 -27 -21 51 -43 127 -23 127 34
0 19 -11 30 -79 81 -36 27 -19 44 35 36 35 -5 44 -3 44 8 0 28 -81 38 -114 14z"/>
<path d="M4399 578 c-1 -13 -1 -27 0 -32 1 -5 -8 -19 -19 -32 l-22 -22 21 -12
c17 -9 21 -19 19 -50 -1 -22 1 -42 4 -46 16 -15 28 12 28 61 0 45 3 55 20 60
11 3 20 11 20 17 0 5 -9 12 -20 15 -14 4 -20 14 -20 34 0 35 -29 41 -31 7z"/>
<path d="M2225 528 c-12 -56 -24 -71 -42 -57 -8 7 -19 23 -24 36 -7 20 -39 34
-39 18 0 -17 30 -73 48 -89 l21 -18 -20 -40 c-21 -41 -20 -54 4 -45 18 7 76
143 79 187 4 44 -18 50 -27 8z"/>
<path d="M2318 549 c-29 -17 -22 -54 17 -83 34 -26 47 -56 23 -56 -6 0 -19 7
-29 16 -10 9 -22 13 -28 10 -16 -10 -2 -33 29 -46 40 -17 70 1 70 41 0 23 -7
34 -35 50 -19 12 -35 28 -35 36 0 12 8 14 35 9 38 -8 48 7 16 24 -24 12 -41
12 -63 -1z"/>
<path d="M2595 551 c-28 -4 -43 -13 -52 -31 -29 -55 12 -137 62 -124 23 6 35
-14 35 -63 0 -30 13 -35 39 -17 l22 16 -20 19 c-18 17 -21 32 -21 114 0 70 -3
95 -12 94 -7 -1 -31 -5 -53 -8z m30 -70 c0 -41 -25 -62 -49 -42 -33 27 -12 85
29 79 16 -2 20 -11 20 -37z"/>
<path d="M2945 549 c-33 -19 -45 -41 -45 -81 0 -37 26 -78 50 -78 20 0 60 24
60 37 0 16 -22 17 -37 2 -12 -12 -43 -6 -43 9 0 4 15 12 32 17 40 12 68 56 52
82 -13 22 -42 27 -69 12z m45 -32 c0 -19 -21 -37 -42 -37 -22 0 -23 8 -1 32
19 21 43 24 43 5z"/>
<path d="M3285 548 c-33 -17 -45 -40 -45 -80 0 -37 26 -78 50 -78 20 0 60 24
60 37 0 16 -22 17 -37 2 -13 -13 -43 -5 -43 11 0 5 8 10 19 10 24 0 71 44 71
68 0 37 -35 52 -75 30z m40 -28 c9 -15 -14 -40 -36 -40 -23 0 -24 8 -2 32 18
20 29 23 38 8z"/>
<path d="M3895 552 c-3 -3 -5 -56 -5 -119 0 -92 3 -113 14 -113 10 0 16 13 18
41 3 37 6 43 38 53 56 18 74 74 41 126 -10 14 -94 24 -106 12z m89 -47 c11
-28 -19 -65 -53 -65 -15 0 -14 53 1 68 17 17 45 15 52 -3z"/>
<path d="M4799 531 c-35 -35 -38 -77 -8 -115 24 -31 48 -33 80 -7 30 24 18 38
-17 22 -26 -11 -44 -8 -44 10 0 5 6 9 14 9 27 0 66 41 66 70 0 48 -47 54 -91
11z m61 -21 c0 -13 -9 -22 -25 -26 -35 -9 -41 0 -16 25 26 26 41 27 41 1z"/>
<path d="M707 532 c-42 -47 -39 -119 6 -139 37 -17 93 15 69 39 -8 8 -16 7
-26 -2 -38 -31 -66 38 -30 74 18 19 26 20 41 5 20 -20 36 1 17 22 -21 24 -56
24 -77 1z"/>
<path d="M869 521 c-22 -23 -29 -39 -29 -70 0 -49 15 -59 88 -58 49 1 53 2 46
21 -4 12 -9 47 -11 79 -5 56 -5 57 -35 57 -19 0 -40 -10 -59 -29z m61 -45 c0
-37 -21 -61 -45 -52 -22 8 -18 46 6 73 27 28 39 22 39 -21z"/>
<path d="M1177 543 c-4 -3 -7 -40 -7 -80 0 -55 3 -74 13 -71 14 5 25 72 19
122 -4 35 -11 43 -25 29z"/>
<path d="M1275 527 c-41 -63 -23 -137 34 -137 55 0 91 84 57 135 -22 33 -69
34 -91 2z m63 -19 c18 -18 15 -43 -8 -69 -19 -23 -21 -23 -34 -6 -14 18 -11
52 7 75 12 15 20 15 35 0z"/>
<path d="M2467 543 c-4 -3 -7 -40 -7 -80 0 -55 3 -74 13 -71 8 3 13 31 15 81
3 70 -3 89 -21 70z"/>
<path d="M4080 518 c-37 -60 -16 -128 39 -128 35 0 60 27 68 74 13 80 -66 120
-107 54z m70 -17 c18 -34 -23 -101 -47 -77 -11 11 -7 64 7 80 17 21 27 20 40
-3z"/>
<path d="M4281 541 c-7 -5 -21 -6 -31 -4 -16 4 -17 -2 -13 -64 5 -81 9 -96 23
-88 5 3 10 30 10 59 0 60 19 88 44 67 19 -16 32 5 16 24 -14 17 -29 19 -49 6z"/>
<path d="M4527 543 c-4 -3 -7 -39 -7 -80 0 -56 3 -73 14 -73 20 0 26 23 26 96
0 47 -4 64 -13 64 -8 0 -17 -3 -20 -7z"/>
<path d="M4697 543 c-2 -5 -10 -25 -16 -45 -7 -21 -16 -38 -20 -38 -4 0 -16
18 -26 40 -17 38 -42 50 -38 19 4 -33 49 -129 60 -129 28 0 77 140 55 154 -6
3 -13 3 -15 -1z"/>
<path d="M520 515 c-15 -39 -12 -91 6 -109 18 -19 28 -20 55 -5 15 7 24 7 34
-1 24 -20 37 -2 19 26 -14 20 -14 32 -6 66 12 46 10 53 -12 45 -8 -3 -18 -26
-21 -51 -8 -50 -23 -69 -44 -56 -13 7 -13 36 1 89 6 26 -22 23 -32 -4z"/>
<path d="M1424 526 c-3 -7 -4 -40 -2 -72 2 -44 7 -59 18 -59 11 0 16 13 18 47
2 34 8 51 21 58 26 13 31 4 31 -57 0 -40 4 -53 15 -53 12 0 15 14 15 64 0 75
-15 96 -55 78 -15 -7 -26 -8 -30 -2 -9 14 -25 12 -31 -4z"/>
<path d="M2730 514 c-15 -38 -12 -91 6 -108 18 -19 28 -20 55 -5 15 7 24 7 34
-1 24 -20 37 -2 21 29 -11 20 -12 38 -6 66 10 44 8 50 -14 42 -8 -3 -18 -26
-21 -51 -8 -50 -23 -69 -44 -56 -14 8 -12 52 4 93 5 12 2 17 -9 17 -9 0 -21
-12 -26 -26z"/>
</g>
</svg>
